<?xml version="1.0" encoding="utf-8" standalone="no"?>
<!DOCTYPE svg PUBLIC "-//W3C//DTD SVG 1.1//EN"
  "http://www.w3.org/Graphics/SVG/1.1/DTD/svg11.dtd">
<svg xmlns:xlink="http://www.w3.org/1999/xlink" width="460.8pt" height="345.6pt" viewBox="0 0 460.8 345.6" xmlns="http://www.w3.org/2000/svg" version="1.1">
 <metadata>
  <rdf:RDF xmlns:dc="http://purl.org/dc/elements/1.1/" xmlns:cc="http://creativecommons.org/ns#" xmlns:rdf="http://www.w3.org/1999/02/22-rdf-syntax-ns#">
   <cc:Work>
    <dc:type rdf:resource="http://purl.org/dc/dcmitype/StillImage"/>
    <dc:date>2023-04-05T21:59:30.964449</dc:date>
    <dc:format>image/svg+xml</dc:format>
    <dc:creator>
     <cc:Agent>
      <dc:title>Matplotlib v3.6.3, https://matplotlib.org/</dc:title>
     </cc:Agent>
    </dc:creator>
   </cc:Work>
  </rdf:RDF>
 </metadata>
 <defs>
  <style type="text/css">*{stroke-linejoin: round; stroke-linecap: butt}</style>
 </defs>
 <g id="figure_1">
  <g id="patch_1">
   <path d="M 0 345.6 
L 460.8 345.6 
L 460.8 0 
L 0 0 
z
" style="fill: #ffffff"/>
  </g>
  <g id="axes_1">
   <g id="patch_2">
    <path d="M 57.6 307.584 
L 414.72 307.584 
L 414.72 41.472 
L 57.6 41.472 
z
" style="fill: #ffffff"/>
   </g>
   <g id="matplotlib.axis_1">
    <g id="xtick_1">
     <g id="line2d_1">
      <defs>
       <path id="m434ced3596" d="M 0 0 
L 0 3.5 
" style="stroke: #000000; stroke-width: 0.8"/>
      </defs>
      <g>
       <use xlink:href="#m434ced3596" x="74.605714" y="307.584" style="stroke: #000000; stroke-width: 0.8"/>
      </g>
     </g>
     <g id="text_1">
      <!-- 0.0 -->
      <g transform="translate(66.654152 322.182437) scale(0.1 -0.1)">
       <defs>
        <path id="DejaVuSans-30" d="M 2034 4250 
Q 1547 4250 1301 3770 
Q 1056 3291 1056 2328 
Q 1056 1369 1301 889 
Q 1547 409 2034 409 
Q 2525 409 2770 889 
Q 3016 1369 3016 2328 
Q 3016 3291 2770 3770 
Q 2525 4250 2034 4250 
z
M 2034 4750 
Q 2819 4750 3233 4129 
Q 3647 3509 3647 2328 
Q 3647 1150 3233 529 
Q 2819 -91 2034 -91 
Q 1250 -91 836 529 
Q 422 1150 422 2328 
Q 422 3509 836 4129 
Q 1250 4750 2034 4750 
z
" transform="scale(0.015625)"/>
        <path id="DejaVuSans-2e" d="M 684 794 
L 1344 794 
L 1344 0 
L 684 0 
L 684 794 
z
" transform="scale(0.015625)"/>
       </defs>
       <use xlink:href="#DejaVuSans-30"/>
       <use xlink:href="#DejaVuSans-2e" x="63.623047"/>
       <use xlink:href="#DejaVuSans-30" x="95.410156"/>
      </g>
     </g>
    </g>
    <g id="xtick_2">
     <g id="line2d_2">
      <g>
       <use xlink:href="#m434ced3596" x="142.628571" y="307.584" style="stroke: #000000; stroke-width: 0.8"/>
      </g>
     </g>
     <g id="text_2">
      <!-- 0.2 -->
      <g transform="translate(134.677009 322.182437) scale(0.1 -0.1)">
       <defs>
        <path id="DejaVuSans-32" d="M 1228 531 
L 3431 531 
L 3431 0 
L 469 0 
L 469 531 
Q 828 903 1448 1529 
Q 2069 2156 2228 2338 
Q 2531 2678 2651 2914 
Q 2772 3150 2772 3378 
Q 2772 3750 2511 3984 
Q 2250 4219 1831 4219 
Q 1534 4219 1204 4116 
Q 875 4013 500 3803 
L 500 4441 
Q 881 4594 1212 4672 
Q 1544 4750 1819 4750 
Q 2544 4750 2975 4387 
Q 3406 4025 3406 3419 
Q 3406 3131 3298 2873 
Q 3191 2616 2906 2266 
Q 2828 2175 2409 1742 
Q 1991 1309 1228 531 
z
" transform="scale(0.015625)"/>
       </defs>
       <use xlink:href="#DejaVuSans-30"/>
       <use xlink:href="#DejaVuSans-2e" x="63.623047"/>
       <use xlink:href="#DejaVuSans-32" x="95.410156"/>
      </g>
     </g>
    </g>
    <g id="xtick_3">
     <g id="line2d_3">
      <g>
       <use xlink:href="#m434ced3596" x="210.651429" y="307.584" style="stroke: #000000; stroke-width: 0.8"/>
      </g>
     </g>
     <g id="text_3">
      <!-- 0.4 -->
      <g transform="translate(202.699866 322.182437) scale(0.1 -0.1)">
       <defs>
        <path id="DejaVuSans-34" d="M 2419 4116 
L 825 1625 
L 2419 1625 
L 2419 4116 
z
M 2253 4666 
L 3047 4666 
L 3047 1625 
L 3713 1625 
L 3713 1100 
L 3047 1100 
L 3047 0 
L 2419 0 
L 2419 1100 
L 313 1100 
L 313 1709 
L 2253 4666 
z
" transform="scale(0.015625)"/>
       </defs>
       <use xlink:href="#DejaVuSans-30"/>
       <use xlink:href="#DejaVuSans-2e" x="63.623047"/>
       <use xlink:href="#DejaVuSans-34" x="95.410156"/>
      </g>
     </g>
    </g>
    <g id="xtick_4">
     <g id="line2d_4">
      <g>
       <use xlink:href="#m434ced3596" x="278.674286" y="307.584" style="stroke: #000000; stroke-width: 0.8"/>
      </g>
     </g>
     <g id="text_4">
      <!-- 0.6 -->
      <g transform="translate(270.722723 322.182437) scale(0.1 -0.1)">
       <defs>
        <path id="DejaVuSans-36" d="M 2113 2584 
Q 1688 2584 1439 2293 
Q 1191 2003 1191 1497 
Q 1191 994 1439 701 
Q 1688 409 2113 409 
Q 2538 409 2786 701 
Q 3034 994 3034 1497 
Q 3034 2003 2786 2293 
Q 2538 2584 2113 2584 
z
M 3366 4563 
L 3366 3988 
Q 3128 4100 2886 4159 
Q 2644 4219 2406 4219 
Q 1781 4219 1451 3797 
Q 1122 3375 1075 2522 
Q 1259 2794 1537 2939 
Q 1816 3084 2150 3084 
Q 2853 3084 3261 2657 
Q 3669 2231 3669 1497 
Q 3669 778 3244 343 
Q 2819 -91 2113 -91 
Q 1303 -91 875 529 
Q 447 1150 447 2328 
Q 447 3434 972 4092 
Q 1497 4750 2381 4750 
Q 2619 4750 2861 4703 
Q 3103 4656 3366 4563 
z
" transform="scale(0.015625)"/>
       </defs>
       <use xlink:href="#DejaVuSans-30"/>
       <use xlink:href="#DejaVuSans-2e" x="63.623047"/>
       <use xlink:href="#DejaVuSans-36" x="95.410156"/>
      </g>
     </g>
    </g>
    <g id="xtick_5">
     <g id="line2d_5">
      <g>
       <use xlink:href="#m434ced3596" x="346.697143" y="307.584" style="stroke: #000000; stroke-width: 0.8"/>
      </g>
     </g>
     <g id="text_5">
      <!-- 0.8 -->
      <g transform="translate(338.74558 322.182437) scale(0.1 -0.1)">
       <defs>
        <path id="DejaVuSans-38" d="M 2034 2216 
Q 1584 2216 1326 1975 
Q 1069 1734 1069 1313 
Q 1069 891 1326 650 
Q 1584 409 2034 409 
Q 2484 409 2743 651 
Q 3003 894 3003 1313 
Q 3003 1734 2745 1975 
Q 2488 2216 2034 2216 
z
M 1403 2484 
Q 997 2584 770 2862 
Q 544 3141 544 3541 
Q 544 4100 942 4425 
Q 1341 4750 2034 4750 
Q 2731 4750 3128 4425 
Q 3525 4100 3525 3541 
Q 3525 3141 3298 2862 
Q 3072 2584 2669 2484 
Q 3125 2378 3379 2068 
Q 3634 1759 3634 1313 
Q 3634 634 3220 271 
Q 2806 -91 2034 -91 
Q 1263 -91 848 271 
Q 434 634 434 1313 
Q 434 1759 690 2068 
Q 947 2378 1403 2484 
z
M 1172 3481 
Q 1172 3119 1398 2916 
Q 1625 2713 2034 2713 
Q 2441 2713 2670 2916 
Q 2900 3119 2900 3481 
Q 2900 3844 2670 4047 
Q 2441 4250 2034 4250 
Q 1625 4250 1398 4047 
Q 1172 3844 1172 3481 
z
" transform="scale(0.015625)"/>
       </defs>
       <use xlink:href="#DejaVuSans-30"/>
       <use xlink:href="#DejaVuSans-2e" x="63.623047"/>
       <use xlink:href="#DejaVuSans-38" x="95.410156"/>
      </g>
     </g>
    </g>
    <g id="xtick_6">
     <g id="line2d_6">
      <g>
       <use xlink:href="#m434ced3596" x="414.72" y="307.584" style="stroke: #000000; stroke-width: 0.8"/>
      </g>
     </g>
     <g id="text_6">
      <!-- 1.0 -->
      <g transform="translate(406.768438 322.182437) scale(0.1 -0.1)">
       <defs>
        <path id="DejaVuSans-31" d="M 794 531 
L 1825 531 
L 1825 4091 
L 703 3866 
L 703 4441 
L 1819 4666 
L 2450 4666 
L 2450 531 
L 3481 531 
L 3481 0 
L 794 0 
L 794 531 
z
" transform="scale(0.015625)"/>
       </defs>
       <use xlink:href="#DejaVuSans-31"/>
       <use xlink:href="#DejaVuSans-2e" x="63.623047"/>
       <use xlink:href="#DejaVuSans-30" x="95.410156"/>
      </g>
     </g>
    </g>
    <g id="text_7">
     <!-- False Positive Rate -->
     <g transform="translate(189.693594 335.860562) scale(0.1 -0.1)">
      <defs>
       <path id="DejaVuSans-46" d="M 628 4666 
L 3309 4666 
L 3309 4134 
L 1259 4134 
L 1259 2759 
L 3109 2759 
L 3109 2228 
L 1259 2228 
L 1259 0 
L 628 0 
L 628 4666 
z
" transform="scale(0.015625)"/>
       <path id="DejaVuSans-61" d="M 2194 1759 
Q 1497 1759 1228 1600 
Q 959 1441 959 1056 
Q 959 750 1161 570 
Q 1363 391 1709 391 
Q 2188 391 2477 730 
Q 2766 1069 2766 1631 
L 2766 1759 
L 2194 1759 
z
M 3341 1997 
L 3341 0 
L 2766 0 
L 2766 531 
Q 2569 213 2275 61 
Q 1981 -91 1556 -91 
Q 1019 -91 701 211 
Q 384 513 384 1019 
Q 384 1609 779 1909 
Q 1175 2209 1959 2209 
L 2766 2209 
L 2766 2266 
Q 2766 2663 2505 2880 
Q 2244 3097 1772 3097 
Q 1472 3097 1187 3025 
Q 903 2953 641 2809 
L 641 3341 
Q 956 3463 1253 3523 
Q 1550 3584 1831 3584 
Q 2591 3584 2966 3190 
Q 3341 2797 3341 1997 
z
" transform="scale(0.015625)"/>
       <path id="DejaVuSans-6c" d="M 603 4863 
L 1178 4863 
L 1178 0 
L 603 0 
L 603 4863 
z
" transform="scale(0.015625)"/>
       <path id="DejaVuSans-73" d="M 2834 3397 
L 2834 2853 
Q 2591 2978 2328 3040 
Q 2066 3103 1784 3103 
Q 1356 3103 1142 2972 
Q 928 2841 928 2578 
Q 928 2378 1081 2264 
Q 1234 2150 1697 2047 
L 1894 2003 
Q 2506 1872 2764 1633 
Q 3022 1394 3022 966 
Q 3022 478 2636 193 
Q 2250 -91 1575 -91 
Q 1294 -91 989 -36 
Q 684 19 347 128 
L 347 722 
Q 666 556 975 473 
Q 1284 391 1588 391 
Q 1994 391 2212 530 
Q 2431 669 2431 922 
Q 2431 1156 2273 1281 
Q 2116 1406 1581 1522 
L 1381 1569 
Q 847 1681 609 1914 
Q 372 2147 372 2553 
Q 372 3047 722 3315 
Q 1072 3584 1716 3584 
Q 2034 3584 2315 3537 
Q 2597 3491 2834 3397 
z
" transform="scale(0.015625)"/>
       <path id="DejaVuSans-65" d="M 3597 1894 
L 3597 1613 
L 953 1613 
Q 991 1019 1311 708 
Q 1631 397 2203 397 
Q 2534 397 2845 478 
Q 3156 559 3463 722 
L 3463 178 
Q 3153 47 2828 -22 
Q 2503 -91 2169 -91 
Q 1331 -91 842 396 
Q 353 884 353 1716 
Q 353 2575 817 3079 
Q 1281 3584 2069 3584 
Q 2775 3584 3186 3129 
Q 3597 2675 3597 1894 
z
M 3022 2063 
Q 3016 2534 2758 2815 
Q 2500 3097 2075 3097 
Q 1594 3097 1305 2825 
Q 1016 2553 972 2059 
L 3022 2063 
z
" transform="scale(0.015625)"/>
       <path id="DejaVuSans-20" transform="scale(0.015625)"/>
       <path id="DejaVuSans-50" d="M 1259 4147 
L 1259 2394 
L 2053 2394 
Q 2494 2394 2734 2622 
Q 2975 2850 2975 3272 
Q 2975 3691 2734 3919 
Q 2494 4147 2053 4147 
L 1259 4147 
z
M 628 4666 
L 2053 4666 
Q 2838 4666 3239 4311 
Q 3641 3956 3641 3272 
Q 3641 2581 3239 2228 
Q 2838 1875 2053 1875 
L 1259 1875 
L 1259 0 
L 628 0 
L 628 4666 
z
" transform="scale(0.015625)"/>
       <path id="DejaVuSans-6f" d="M 1959 3097 
Q 1497 3097 1228 2736 
Q 959 2375 959 1747 
Q 959 1119 1226 758 
Q 1494 397 1959 397 
Q 2419 397 2687 759 
Q 2956 1122 2956 1747 
Q 2956 2369 2687 2733 
Q 2419 3097 1959 3097 
z
M 1959 3584 
Q 2709 3584 3137 3096 
Q 3566 2609 3566 1747 
Q 3566 888 3137 398 
Q 2709 -91 1959 -91 
Q 1206 -91 779 398 
Q 353 888 353 1747 
Q 353 2609 779 3096 
Q 1206 3584 1959 3584 
z
" transform="scale(0.015625)"/>
       <path id="DejaVuSans-69" d="M 603 3500 
L 1178 3500 
L 1178 0 
L 603 0 
L 603 3500 
z
M 603 4863 
L 1178 4863 
L 1178 4134 
L 603 4134 
L 603 4863 
z
" transform="scale(0.015625)"/>
       <path id="DejaVuSans-74" d="M 1172 4494 
L 1172 3500 
L 2356 3500 
L 2356 3053 
L 1172 3053 
L 1172 1153 
Q 1172 725 1289 603 
Q 1406 481 1766 481 
L 2356 481 
L 2356 0 
L 1766 0 
Q 1100 0 847 248 
Q 594 497 594 1153 
L 594 3053 
L 172 3053 
L 172 3500 
L 594 3500 
L 594 4494 
L 1172 4494 
z
" transform="scale(0.015625)"/>
       <path id="DejaVuSans-76" d="M 191 3500 
L 800 3500 
L 1894 563 
L 2988 3500 
L 3597 3500 
L 2284 0 
L 1503 0 
L 191 3500 
z
" transform="scale(0.015625)"/>
       <path id="DejaVuSans-52" d="M 2841 2188 
Q 3044 2119 3236 1894 
Q 3428 1669 3622 1275 
L 4263 0 
L 3584 0 
L 2988 1197 
Q 2756 1666 2539 1819 
Q 2322 1972 1947 1972 
L 1259 1972 
L 1259 0 
L 628 0 
L 628 4666 
L 2053 4666 
Q 2853 4666 3247 4331 
Q 3641 3997 3641 3322 
Q 3641 2881 3436 2590 
Q 3231 2300 2841 2188 
z
M 1259 4147 
L 1259 2491 
L 2053 2491 
Q 2509 2491 2742 2702 
Q 2975 2913 2975 3322 
Q 2975 3731 2742 3939 
Q 2509 4147 2053 4147 
L 1259 4147 
z
" transform="scale(0.015625)"/>
      </defs>
      <use xlink:href="#DejaVuSans-46"/>
      <use xlink:href="#DejaVuSans-61" x="48.394531"/>
      <use xlink:href="#DejaVuSans-6c" x="109.673828"/>
      <use xlink:href="#DejaVuSans-73" x="137.457031"/>
      <use xlink:href="#DejaVuSans-65" x="189.556641"/>
      <use xlink:href="#DejaVuSans-20" x="251.080078"/>
      <use xlink:href="#DejaVuSans-50" x="282.867188"/>
      <use xlink:href="#DejaVuSans-6f" x="339.544922"/>
      <use xlink:href="#DejaVuSans-73" x="400.726562"/>
      <use xlink:href="#DejaVuSans-69" x="452.826172"/>
      <use xlink:href="#DejaVuSans-74" x="480.609375"/>
      <use xlink:href="#DejaVuSans-69" x="519.818359"/>
      <use xlink:href="#DejaVuSans-76" x="547.601562"/>
      <use xlink:href="#DejaVuSans-65" x="606.78125"/>
      <use xlink:href="#DejaVuSans-20" x="668.304688"/>
      <use xlink:href="#DejaVuSans-52" x="700.091797"/>
      <use xlink:href="#DejaVuSans-61" x="767.324219"/>
      <use xlink:href="#DejaVuSans-74" x="828.603516"/>
      <use xlink:href="#DejaVuSans-65" x="867.8125"/>
     </g>
    </g>
   </g>
   <g id="matplotlib.axis_2">
    <g id="ytick_1">
     <g id="line2d_7">
      <defs>
       <path id="me988ba018d" d="M 0 0 
L -3.5 0 
" style="stroke: #000000; stroke-width: 0.8"/>
      </defs>
      <g>
       <use xlink:href="#me988ba018d" x="57.6" y="307.584" style="stroke: #000000; stroke-width: 0.8"/>
      </g>
     </g>
     <g id="text_8">
      <!-- 0.0 -->
      <g transform="translate(34.696875 311.383219) scale(0.1 -0.1)">
       <use xlink:href="#DejaVuSans-30"/>
       <use xlink:href="#DejaVuSans-2e" x="63.623047"/>
       <use xlink:href="#DejaVuSans-30" x="95.410156"/>
      </g>
     </g>
    </g>
    <g id="ytick_2">
     <g id="line2d_8">
      <g>
       <use xlink:href="#me988ba018d" x="57.6" y="256.896" style="stroke: #000000; stroke-width: 0.8"/>
      </g>
     </g>
     <g id="text_9">
      <!-- 0.2 -->
      <g transform="translate(34.696875 260.695219) scale(0.1 -0.1)">
       <use xlink:href="#DejaVuSans-30"/>
       <use xlink:href="#DejaVuSans-2e" x="63.623047"/>
       <use xlink:href="#DejaVuSans-32" x="95.410156"/>
      </g>
     </g>
    </g>
    <g id="ytick_3">
     <g id="line2d_9">
      <g>
       <use xlink:href="#me988ba018d" x="57.6" y="206.208" style="stroke: #000000; stroke-width: 0.8"/>
      </g>
     </g>
     <g id="text_10">
      <!-- 0.4 -->
      <g transform="translate(34.696875 210.007219) scale(0.1 -0.1)">
       <use xlink:href="#DejaVuSans-30"/>
       <use xlink:href="#DejaVuSans-2e" x="63.623047"/>
       <use xlink:href="#DejaVuSans-34" x="95.410156"/>
      </g>
     </g>
    </g>
    <g id="ytick_4">
     <g id="line2d_10">
      <g>
       <use xlink:href="#me988ba018d" x="57.6" y="155.52" style="stroke: #000000; stroke-width: 0.8"/>
      </g>
     </g>
     <g id="text_11">
      <!-- 0.6 -->
      <g transform="translate(34.696875 159.319219) scale(0.1 -0.1)">
       <use xlink:href="#DejaVuSans-30"/>
       <use xlink:href="#DejaVuSans-2e" x="63.623047"/>
       <use xlink:href="#DejaVuSans-36" x="95.410156"/>
      </g>
     </g>
    </g>
    <g id="ytick_5">
     <g id="line2d_11">
      <g>
       <use xlink:href="#me988ba018d" x="57.6" y="104.832" style="stroke: #000000; stroke-width: 0.8"/>
      </g>
     </g>
     <g id="text_12">
      <!-- 0.8 -->
      <g transform="translate(34.696875 108.631219) scale(0.1 -0.1)">
       <use xlink:href="#DejaVuSans-30"/>
       <use xlink:href="#DejaVuSans-2e" x="63.623047"/>
       <use xlink:href="#DejaVuSans-38" x="95.410156"/>
      </g>
     </g>
    </g>
    <g id="ytick_6">
     <g id="line2d_12">
      <g>
       <use xlink:href="#me988ba018d" x="57.6" y="54.144" style="stroke: #000000; stroke-width: 0.8"/>
      </g>
     </g>
     <g id="text_13">
      <!-- 1.0 -->
      <g transform="translate(34.696875 57.943219) scale(0.1 -0.1)">
       <use xlink:href="#DejaVuSans-31"/>
       <use xlink:href="#DejaVuSans-2e" x="63.623047"/>
       <use xlink:href="#DejaVuSans-30" x="95.410156"/>
      </g>
     </g>
    </g>
    <g id="text_14">
     <!-- True Positive Rate -->
     <g transform="translate(28.617187 219.057687) rotate(-90) scale(0.1 -0.1)">
      <defs>
       <path id="DejaVuSans-54" d="M -19 4666 
L 3928 4666 
L 3928 4134 
L 2272 4134 
L 2272 0 
L 1638 0 
L 1638 4134 
L -19 4134 
L -19 4666 
z
" transform="scale(0.015625)"/>
       <path id="DejaVuSans-72" d="M 2631 2963 
Q 2534 3019 2420 3045 
Q 2306 3072 2169 3072 
Q 1681 3072 1420 2755 
Q 1159 2438 1159 1844 
L 1159 0 
L 581 0 
L 581 3500 
L 1159 3500 
L 1159 2956 
Q 1341 3275 1631 3429 
Q 1922 3584 2338 3584 
Q 2397 3584 2469 3576 
Q 2541 3569 2628 3553 
L 2631 2963 
z
" transform="scale(0.015625)"/>
       <path id="DejaVuSans-75" d="M 544 1381 
L 544 3500 
L 1119 3500 
L 1119 1403 
Q 1119 906 1312 657 
Q 1506 409 1894 409 
Q 2359 409 2629 706 
Q 2900 1003 2900 1516 
L 2900 3500 
L 3475 3500 
L 3475 0 
L 2900 0 
L 2900 538 
Q 2691 219 2414 64 
Q 2138 -91 1772 -91 
Q 1169 -91 856 284 
Q 544 659 544 1381 
z
M 1991 3584 
L 1991 3584 
z
" transform="scale(0.015625)"/>
      </defs>
      <use xlink:href="#DejaVuSans-54"/>
      <use xlink:href="#DejaVuSans-72" x="46.333984"/>
      <use xlink:href="#DejaVuSans-75" x="87.447266"/>
      <use xlink:href="#DejaVuSans-65" x="150.826172"/>
      <use xlink:href="#DejaVuSans-20" x="212.349609"/>
      <use xlink:href="#DejaVuSans-50" x="244.136719"/>
      <use xlink:href="#DejaVuSans-6f" x="300.814453"/>
      <use xlink:href="#DejaVuSans-73" x="361.996094"/>
      <use xlink:href="#DejaVuSans-69" x="414.095703"/>
      <use xlink:href="#DejaVuSans-74" x="441.878906"/>
      <use xlink:href="#DejaVuSans-69" x="481.087891"/>
      <use xlink:href="#DejaVuSans-76" x="508.871094"/>
      <use xlink:href="#DejaVuSans-65" x="568.050781"/>
      <use xlink:href="#DejaVuSans-20" x="629.574219"/>
      <use xlink:href="#DejaVuSans-52" x="661.361328"/>
      <use xlink:href="#DejaVuSans-61" x="728.59375"/>
      <use xlink:href="#DejaVuSans-74" x="789.873047"/>
      <use xlink:href="#DejaVuSans-65" x="829.082031"/>
     </g>
    </g>
   </g>
   <g id="line2d_13">
    <path d="M 74.605714 307.584 
L 74.798888 302.205963 
L 74.863279 274.307395 
L 74.92767 271.618377 
L 74.992061 248.761719 
L 75.056453 245.064318 
L 75.120844 227.24957 
L 75.185235 222.879915 
L 75.249626 207.418058 
L 75.314017 204.056785 
L 75.378409 194.309093 
L 75.4428 189.267183 
L 75.4428 176.158218 
L 75.635973 170.444053 
L 75.700365 159.351851 
L 75.957929 147.587395 
L 76.022321 134.814557 
L 76.344277 132.461666 
L 76.344277 121.369464 
L 76.473059 117.672064 
L 76.473059 114.31079 
L 76.53745 114.31079 
L 76.795015 112.294027 
L 77.181362 100.865698 
L 77.181362 98.512806 
L 77.245753 98.512806 
L 77.825274 97.168297 
L 77.825274 95.48766 
L 77.954056 95.48766 
L 78.018448 89.101241 
L 78.211621 89.101241 
L 78.276012 85.739968 
L 78.340404 85.739968 
L 78.404795 83.05095 
L 78.597968 81.034186 
L 78.726751 81.034186 
L 78.726751 79.689676 
L 78.855533 79.689676 
L 78.855533 78.345167 
L 78.984315 78.345167 
L 79.048707 78.00904 
L 79.048707 76.328403 
L 79.24188 76.328403 
L 79.24188 75.656149 
L 79.628227 75.656149 
L 79.885792 74.647767 
L 80.272139 74.647767 
L 80.272139 72.96713 
L 80.916051 72.96713 
L 81.302398 70.614239 
L 81.302398 67.589093 
L 81.431181 67.589093 
L 81.817528 62.547183 
L 83.684873 62.547183 
L 83.749264 57.841401 
L 84.135611 57.841401 
L 84.135611 55.152382 
L 93.601116 55.152382 
L 93.601116 54.144 
L 414.72 54.144 
L 414.72 54.144 
" clip-path="url(#pf7eec62ae9)" style="fill: none; stroke: #0000ff; stroke-width: 2; stroke-linecap: square"/>
   </g>
   <g id="line2d_14">
    <path d="M 74.605714 307.584 
L 74.734521 287.443073 
L 74.798924 231.384159 
L 74.863328 218.963921 
L 74.927731 196.808901 
L 74.992135 183.717298 
L 75.056538 103.824954 
L 75.120941 96.775629 
L 75.185345 88.719258 
L 75.571765 88.719258 
L 75.636168 76.29902 
L 75.700572 76.29902 
L 75.700572 60.857642 
L 76.859833 60.857642 
L 76.859833 54.144 
L 414.72 54.144 
L 414.72 54.144 
" clip-path="url(#pf7eec62ae9)" style="fill: none; stroke: #800080; stroke-width: 2; stroke-linecap: square"/>
   </g>
   <g id="line2d_15">
    <path d="M 74.605714 307.584 
L 74.605714 54.144 
L 414.72 54.144 
L 414.72 54.144 
" clip-path="url(#pf7eec62ae9)" style="fill: none; stroke: #ffa500; stroke-width: 2; stroke-linecap: square"/>
   </g>
   <g id="line2d_16">
    <path d="M 74.605714 307.584 
L 74.670105 306.239491 
L 74.734497 266.912594 
L 74.798888 263.215194 
L 74.863279 210.443204 
L 74.92767 208.42644 
L 74.992061 186.578164 
L 75.056453 185.233655 
L 75.120844 165.402143 
L 75.314017 165.402143 
L 75.314017 161.368615 
L 75.378409 161.368615 
L 75.4428 159.015724 
L 75.957929 159.015724 
L 76.408668 155.990578 
L 76.601841 143.553867 
L 76.666232 135.486812 
L 77.05258 124.39461 
L 77.310144 121.705592 
L 77.310144 119.3527 
L 77.567709 116.327554 
L 77.567709 112.294027 
L 77.889665 110.61339 
L 77.954056 102.546334 
L 78.276012 100.193443 
L 78.276012 96.83217 
L 78.597968 93.134769 
L 78.597968 87.420605 
L 78.984315 85.403841 
L 78.984315 80.025804 
L 79.177489 73.303257 
L 79.499445 71.622621 
L 80.143357 60.866546 
L 81.431181 60.866546 
L 81.495572 58.177528 
L 82.525831 58.177528 
L 82.783396 54.144 
L 414.72 54.144 
L 414.72 54.144 
" clip-path="url(#pf7eec62ae9)" style="fill: none; stroke: #00ffff; stroke-width: 2; stroke-linecap: square"/>
   </g>
   <g id="line2d_17">
    <path d="M 74.605714 307.584 
L 74.670118 306.241272 
L 74.734521 301.541722 
L 74.798924 301.20604 
L 74.863328 286.771709 
L 75.056538 283.079205 
L 75.120941 274.35147 
L 75.185345 274.015788 
L 75.249748 254.210543 
L 75.314152 252.532132 
L 75.378555 245.81849 
L 75.442958 244.475762 
L 75.442958 235.076662 
L 75.636168 232.726887 
L 75.700572 212.921642 
L 75.764975 212.921642 
L 75.829379 201.172768 
L 76.022589 196.473219 
L 76.151396 191.773669 
L 76.215799 158.205457 
L 76.344606 155.184318 
L 76.409009 139.74294 
L 76.473413 133.700662 
L 76.537816 118.930649 
L 76.602219 118.930649 
L 76.666623 115.90951 
L 76.731026 115.90951 
L 76.795429 112.888371 
L 76.859833 112.888371 
L 76.924236 109.53155 
L 76.98864 109.53155 
L 77.053043 101.139497 
L 77.18185 98.118358 
L 77.246253 92.411762 
L 77.310657 90.061987 
L 77.310657 83.348344 
L 77.697077 81.334252 
L 77.95469 80.662887 
L 78.341111 79.991523 
L 78.534321 78.648795 
L 78.985145 77.97743 
L 79.307162 76.634702 
L 79.822389 75.627656 
L 79.951195 74.284927 
L 80.402019 73.277881 
L 80.724036 71.935152 
L 81.046053 70.592424 
L 82.527331 65.892874 
L 82.656138 64.885828 
L 83.106961 62.871735 
L 83.493382 62.536053 
L 83.815399 60.857642 
L 84.137416 60.857642 
L 84.523836 60.52196 
L 85.16787 59.514914 
L 85.94071 57.165139 
L 86.327131 56.493775 
L 86.327131 56.158093 
L 86.842358 54.815364 
L 87.228778 54.815364 
L 87.228778 54.144 
L 87.293181 54.144 
L 414.72 54.144 
L 414.72 54.144 
" clip-path="url(#pf7eec62ae9)" style="fill: none; stroke: #808080; stroke-width: 2; stroke-linecap: square"/>
   </g>
   <g id="line2d_18">
    <path d="M 74.605714 307.584 
L 74.605714 142.209358 
L 75.120844 142.209358 
L 75.120844 128.764265 
L 75.507191 128.764265 
L 75.507191 127.755883 
L 76.086712 127.755883 
L 76.086712 120.361082 
L 76.215494 120.361082 
L 76.215494 115.991427 
L 77.374536 115.991427 
L 77.374536 115.6553 
L 77.567709 115.6553 
L 77.567709 112.966281 
L 77.889665 112.966281 
L 77.889665 111.621772 
L 77.954056 111.621772 
L 78.211621 111.285645 
L 78.211621 110.949517 
L 78.726751 110.949517 
L 78.726751 110.61339 
L 78.919924 110.61339 
L 78.919924 110.277263 
L 79.499445 110.277263 
L 79.499445 109.941135 
L 79.821401 109.941135 
L 80.143357 109.605008 
L 81.302398 109.605008 
L 81.624354 109.268881 
L 81.624354 108.932753 
L 82.010702 108.932753 
L 83.234134 108.596626 
L 83.234134 108.260499 
L 85.101479 108.260499 
L 85.16587 107.924371 
L 87.290779 107.924371 
L 87.290779 107.588244 
L 87.419562 107.588244 
L 88.514212 107.252117 
L 88.514212 106.915989 
L 89.415689 106.915989 
L 89.608862 106.579862 
L 90.767904 106.579862 
L 90.767904 106.243735 
L 91.540598 106.243735 
L 91.540598 105.907607 
L 92.248901 105.907607 
L 92.69964 105.57148 
L 95.532852 105.57148 
L 95.532852 104.899225 
L 95.597243 104.899225 
L 96.691894 104.899225 
L 96.885067 104.563098 
L 97.528979 104.563098 
L 98.172891 104.226971 
L 99.138759 104.226971 
L 99.589497 103.890844 
L 101.070495 103.890844 
L 101.070495 103.554716 
L 103.131013 103.554716 
L 103.131013 103.218589 
L 103.51736 103.218589 
L 103.646143 102.882462 
L 104.418837 102.882462 
L 105.191531 102.210207 
L 105.191531 101.87408 
L 105.835443 101.87408 
L 105.835443 101.537952 
L 106.994485 101.537952 
L 107.445223 101.201825 
L 108.3467 101.201825 
L 108.604265 100.865698 
L 109.827697 100.865698 
L 110.085262 100.52957 
L 110.600392 100.193443 
L 111.115521 100.193443 
L 111.115521 99.857316 
L 112.467736 99.857316 
L 112.66091 99.521188 
L 115.236558 99.521188 
L 115.558514 99.185061 
L 117.876597 99.185061 
L 118.005379 98.848934 
L 118.520508 98.848934 
L 118.649291 98.512806 
L 119.035638 98.512806 
L 119.550768 98.176679 
L 119.743941 97.840552 
L 120.516635 97.168297 
L 120.838591 97.168297 
L 121.031765 96.83217 
L 123.607413 96.83217 
L 123.736195 96.496042 
L 123.864978 96.496042 
L 123.99376 96.159915 
L 125.539149 96.159915 
L 125.925496 95.823788 
L 126.505016 95.823788 
L 126.891364 95.48766 
L 128.501144 95.48766 
L 128.501144 95.151533 
L 128.823099 94.479279 
L 129.145055 94.479279 
L 129.145055 94.143151 
L 130.754835 94.143151 
L 131.0124 93.807024 
L 132.042659 93.807024 
L 132.171442 93.470897 
L 133.201701 93.470897 
L 133.266092 93.134769 
L 134.489525 93.134769 
L 134.682698 92.798642 
L 137.451519 92.798642 
L 137.580302 92.462515 
L 138.159823 92.126387 
L 138.54617 92.126387 
L 139.769602 91.79026 
L 139.962776 91.79026 
L 140.284732 91.454133 
L 141.057426 91.454133 
L 141.2506 91.118005 
L 141.314991 90.781878 
L 142.989162 90.781878 
L 142.989162 90.445751 
L 143.826248 90.445751 
L 144.405768 89.773496 
L 145.178463 89.773496 
L 145.371636 89.437369 
L 146.981416 89.437369 
L 147.045807 89.101241 
L 153.613709 89.101241 
L 153.6781 88.765114 
L 154.965924 88.765114 
L 155.030315 88.428987 
L 156.833269 88.428987 
L 156.89766 88.092859 
L 159.924046 88.092859 
L 160.246002 87.756732 
L 160.889914 87.756732 
L 161.083088 87.420605 
L 163.401171 87.420605 
L 163.723127 87.084477 
L 164.109474 87.084477 
L 164.109474 86.74835 
L 166.942686 86.74835 
L 166.942686 86.412223 
L 167.071469 86.412223 
L 167.457816 85.739968 
L 167.586598 85.739968 
L 167.779772 85.403841 
L 168.681248 85.403841 
L 168.874422 85.067714 
L 174.476456 85.067714 
L 174.605238 84.731586 
L 175.377933 84.731586 
L 175.571106 84.395459 
L 175.571106 84.059332 
L 175.76428 84.059332 
L 176.665756 83.723204 
L 181.301922 83.723204 
L 181.495096 83.387077 
L 181.881443 83.05095 
L 183.298049 83.05095 
L 183.298049 82.714822 
L 183.491223 82.714822 
L 183.620005 82.378695 
L 184.070744 82.042568 
L 184.328309 82.042568 
L 184.521482 81.70644 
L 185.422959 81.70644 
L 185.48735 81.370313 
L 185.616132 81.370313 
L 185.873697 81.034186 
L 188.127389 81.034186 
L 188.256171 80.698058 
L 191.540122 80.698058 
L 192.441599 80.361931 
L 193.536249 80.361931 
L 193.60064 80.025804 
L 194.180161 80.025804 
L 194.437726 79.689676 
L 195.274811 79.689676 
L 195.596767 79.353549 
L 201.198801 79.353549 
L 201.520757 79.017422 
L 205.513011 79.017422 
L 206.414488 78.345167 
L 207.57353 78.345167 
L 207.831094 78.00904 
L 212.789216 78.00904 
L 212.853607 77.672912 
L 213.175563 77.672912 
L 213.239955 77.336785 
L 213.561911 77.000658 
L 215.68682 77.000658 
L 216.008776 76.664531 
L 216.201949 76.664531 
L 216.78147 76.328403 
L 218.584424 76.328403 
L 219.099553 75.992276 
L 219.163944 75.656149 
L 219.550292 75.656149 
L 220.129812 75.320021 
L 220.258595 74.983894 
L 220.580551 74.983894 
L 221.031289 74.647767 
L 222.576678 74.647767 
L 223.349372 74.311639 
L 226.697714 74.311639 
L 227.599191 73.975512 
L 229.852883 73.975512 
L 230.23923 73.639385 
L 230.947533 73.639385 
L 231.140706 73.303257 
L 233.072442 73.303257 
L 233.330007 72.96713 
L 235.776872 72.96713 
L 236.098828 72.631003 
L 237.708608 72.631003 
L 237.837391 72.294875 
L 238.159347 71.958748 
L 239.125214 71.958748 
L 239.253997 71.622621 
L 240.219865 71.622621 
L 240.348647 71.286493 
L 243.632598 71.286493 
L 244.340901 70.950366 
L 245.049204 70.950366 
L 245.564334 70.614239 
L 247.882417 70.614239 
L 248.333155 70.278111 
L 249.170241 70.278111 
L 249.620979 69.941984 
L 250.2005 69.605857 
L 254.772275 69.605857 
L 254.836666 69.269729 
L 261.468959 69.269729 
L 261.855306 68.933602 
L 263.851433 68.933602 
L 264.366562 68.597475 
L 265.33243 68.597475 
L 265.911951 68.261347 
L 267.972469 68.261347 
L 269.002728 67.92522 
L 274.282806 67.92522 
L 274.411589 67.589093 
L 275.119892 67.589093 
L 275.377457 67.252966 
L 282.524879 67.252966 
L 282.846835 66.916838 
L 297.334854 66.916838 
L 297.334854 66.580711 
L 298.171939 66.244584 
L 298.75146 66.244584 
L 299.202198 65.908456 
L 300.425631 65.908456 
L 300.490022 65.572329 
L 302.035411 65.572329 
L 302.614932 65.236202 
L 303.645191 65.236202 
L 304.031538 64.900074 
L 309.376007 64.900074 
L 309.891136 64.563947 
L 313.432652 64.563947 
L 314.012173 64.22782 
L 315.815126 64.22782 
L 316.330256 63.891692 
L 318.390774 63.891692 
L 318.71273 63.555565 
L 323.220114 63.555565 
L 323.477678 63.219438 
L 324.057199 62.88331 
L 325.151849 62.88331 
L 325.602588 62.547183 
L 326.375282 62.211056 
L 328.564583 62.211056 
L 329.144103 61.874928 
L 329.401668 61.538801 
L 330.56071 61.538801 
L 330.818274 61.202674 
L 334.617355 61.202674 
L 335.518832 60.194292 
L 337.06422 60.194292 
L 337.514959 59.858164 
L 341.635995 59.858164 
L 342.022342 59.522037 
L 342.601863 59.522037 
L 342.666254 59.18591 
L 348.847809 59.18591 
L 349.362938 58.849782 
L 352.002977 58.849782 
L 352.775672 58.513655 
L 353.870322 58.513655 
L 354.83619 58.177528 
L 355.480102 58.177528 
L 356.059622 57.841401 
L 357.733793 57.841401 
L 358.313314 57.505273 
L 359.72992 57.505273 
L 359.987485 57.169146 
L 360.76018 56.833019 
L 361.790439 56.833019 
L 362.241177 56.496891 
L 363.078263 56.160764 
L 363.722175 55.488509 
L 364.752434 54.816255 
L 368.744688 54.816255 
L 369.002252 54.480127 
L 376.98676 54.480127 
L 378.145802 54.144 
L 414.72 54.144 
L 414.72 54.144 
" clip-path="url(#pf7eec62ae9)" style="fill: none; stroke: #008000; stroke-width: 2; stroke-linecap: square"/>
   </g>
   <g id="line2d_19">
    <path d="M 74.605714 307.584 
L 74.670118 297.849219 
L 74.992135 270.994649 
L 74.992135 264.952371 
L 75.120941 256.896 
L 75.185345 243.133033 
L 75.249748 238.097801 
L 75.314152 209.229139 
L 75.378555 205.536636 
L 75.442958 199.494358 
L 75.507362 196.137536 
L 75.571765 169.282967 
L 75.636168 165.926146 
L 75.700572 149.14204 
L 75.764975 141.421351 
L 75.829379 126.98702 
L 75.893782 122.623152 
L 75.958185 102.817907 
L 76.022589 99.796768 
L 76.086992 78.648795 
L 76.215799 75.963338 
L 76.537816 75.291974 
L 76.666623 73.613563 
L 76.98864 71.935152 
L 77.37506 66.899921 
L 77.37506 59.179232 
L 77.632673 59.179232 
L 77.890287 56.158093 
L 78.147901 56.158093 
L 78.147901 54.144 
L 414.72 54.144 
L 414.72 54.144 
" clip-path="url(#pf7eec62ae9)" style="fill: none; stroke: #ff0000; stroke-width: 2; stroke-linecap: square"/>
   </g>
   <g id="line2d_20">
    <path d="M 74.605714 307.584 
L 74.670118 248.839629 
L 74.992135 238.433483 
L 75.056538 225.341881 
L 75.120941 221.649377 
L 75.249748 211.914596 
L 75.314152 200.837086 
L 75.442958 195.13049 
L 75.507362 186.738437 
L 75.571765 185.731391 
L 75.893782 174.653881 
L 75.958185 162.233642 
L 76.022589 160.555232 
L 76.086992 150.484768 
L 76.151396 148.806358 
L 76.215799 131.350887 
L 76.280202 131.015205 
L 76.344606 123.965881 
L 76.731026 122.958834 
L 76.859833 122.28747 
L 76.924236 119.266331 
L 77.053043 117.252238 
L 77.246253 116.580874 
L 77.503867 115.238146 
L 77.632673 114.902464 
L 77.632673 113.224053 
L 77.825884 112.217007 
L 78.083497 109.867232 
L 79.307162 101.139497 
L 79.371565 101.139497 
L 79.564775 100.468132 
L 79.822389 99.796768 
L 80.402019 95.432901 
L 80.724036 90.733351 
L 81.36807 90.733351 
L 81.690087 89.726305 
L 81.75449 89.05494 
L 82.140911 88.383576 
L 82.398524 86.369483 
L 82.656138 85.698119 
L 83.622188 85.698119 
L 83.879802 82.67698 
L 84.523836 81.669934 
L 84.652643 80.99857 
L 85.489887 79.320159 
L 85.94071 79.320159 
L 85.94071 78.313113 
L 88.259232 78.313113 
L 88.710056 77.306066 
L 89.225283 77.306066 
L 89.611703 75.963338 
L 91.865822 75.963338 
L 91.994629 74.284927 
L 95.536815 74.284927 
L 96.052042 73.613563 
L 98.11295 73.613563 
L 98.499371 72.270834 
L 99.014598 72.270834 
L 99.851842 71.935152 
L 100.624683 70.592424 
L 100.753489 70.592424 
L 101.52633 69.249695 
L 102.685591 69.249695 
L 103.265221 66.899921 
L 103.394028 66.899921 
L 103.780449 64.885828 
L 104.424482 64.885828 
L 105.004113 63.543099 
L 108.675106 63.543099 
L 109.31914 62.536053 
L 110.413997 59.850596 
L 111.058031 59.850596 
L 111.573258 58.172185 
L 113.89178 58.172185 
L 114.342604 56.829457 
L 114.793428 56.493775 
L 115.823882 56.493775 
L 116.339109 56.158093 
L 121.620187 56.158093 
L 122.393027 55.486728 
L 125.548793 55.486728 
L 126.321634 54.144 
L 414.72 54.144 
L 414.72 54.144 
" clip-path="url(#pf7eec62ae9)" style="fill: none; stroke: #ff00ff; stroke-width: 2; stroke-linecap: square"/>
   </g>
   <g id="line2d_21">
    <path d="M 74.605714 307.584 
L 414.72 54.144 
" clip-path="url(#pf7eec62ae9)" style="fill: none; stroke-dasharray: 7.4,3.2; stroke-dashoffset: 0; stroke: #000000; stroke-width: 2"/>
   </g>
   <g id="patch_3">
    <path d="M 57.6 307.584 
L 57.6 41.472 
" style="fill: none; stroke: #000000; stroke-width: 0.8; stroke-linejoin: miter; stroke-linecap: square"/>
   </g>
   <g id="patch_4">
    <path d="M 414.72 307.584 
L 414.72 41.472 
" style="fill: none; stroke: #000000; stroke-width: 0.8; stroke-linejoin: miter; stroke-linecap: square"/>
   </g>
   <g id="patch_5">
    <path d="M 57.6 307.584 
L 414.72 307.584 
" style="fill: none; stroke: #000000; stroke-width: 0.8; stroke-linejoin: miter; stroke-linecap: square"/>
   </g>
   <g id="patch_6">
    <path d="M 57.6 41.472 
L 414.72 41.472 
" style="fill: none; stroke: #000000; stroke-width: 0.8; stroke-linejoin: miter; stroke-linecap: square"/>
   </g>
   <g id="text_15">
    <!-- Receiver operating characteristic for multiclass -->
    <g transform="translate(94.30875 35.472) scale(0.12 -0.12)">
     <defs>
      <path id="DejaVuSans-63" d="M 3122 3366 
L 3122 2828 
Q 2878 2963 2633 3030 
Q 2388 3097 2138 3097 
Q 1578 3097 1268 2742 
Q 959 2388 959 1747 
Q 959 1106 1268 751 
Q 1578 397 2138 397 
Q 2388 397 2633 464 
Q 2878 531 3122 666 
L 3122 134 
Q 2881 22 2623 -34 
Q 2366 -91 2075 -91 
Q 1284 -91 818 406 
Q 353 903 353 1747 
Q 353 2603 823 3093 
Q 1294 3584 2113 3584 
Q 2378 3584 2631 3529 
Q 2884 3475 3122 3366 
z
" transform="scale(0.015625)"/>
      <path id="DejaVuSans-70" d="M 1159 525 
L 1159 -1331 
L 581 -1331 
L 581 3500 
L 1159 3500 
L 1159 2969 
Q 1341 3281 1617 3432 
Q 1894 3584 2278 3584 
Q 2916 3584 3314 3078 
Q 3713 2572 3713 1747 
Q 3713 922 3314 415 
Q 2916 -91 2278 -91 
Q 1894 -91 1617 61 
Q 1341 213 1159 525 
z
M 3116 1747 
Q 3116 2381 2855 2742 
Q 2594 3103 2138 3103 
Q 1681 3103 1420 2742 
Q 1159 2381 1159 1747 
Q 1159 1113 1420 752 
Q 1681 391 2138 391 
Q 2594 391 2855 752 
Q 3116 1113 3116 1747 
z
" transform="scale(0.015625)"/>
      <path id="DejaVuSans-6e" d="M 3513 2113 
L 3513 0 
L 2938 0 
L 2938 2094 
Q 2938 2591 2744 2837 
Q 2550 3084 2163 3084 
Q 1697 3084 1428 2787 
Q 1159 2491 1159 1978 
L 1159 0 
L 581 0 
L 581 3500 
L 1159 3500 
L 1159 2956 
Q 1366 3272 1645 3428 
Q 1925 3584 2291 3584 
Q 2894 3584 3203 3211 
Q 3513 2838 3513 2113 
z
" transform="scale(0.015625)"/>
      <path id="DejaVuSans-67" d="M 2906 1791 
Q 2906 2416 2648 2759 
Q 2391 3103 1925 3103 
Q 1463 3103 1205 2759 
Q 947 2416 947 1791 
Q 947 1169 1205 825 
Q 1463 481 1925 481 
Q 2391 481 2648 825 
Q 2906 1169 2906 1791 
z
M 3481 434 
Q 3481 -459 3084 -895 
Q 2688 -1331 1869 -1331 
Q 1566 -1331 1297 -1286 
Q 1028 -1241 775 -1147 
L 775 -588 
Q 1028 -725 1275 -790 
Q 1522 -856 1778 -856 
Q 2344 -856 2625 -561 
Q 2906 -266 2906 331 
L 2906 616 
Q 2728 306 2450 153 
Q 2172 0 1784 0 
Q 1141 0 747 490 
Q 353 981 353 1791 
Q 353 2603 747 3093 
Q 1141 3584 1784 3584 
Q 2172 3584 2450 3431 
Q 2728 3278 2906 2969 
L 2906 3500 
L 3481 3500 
L 3481 434 
z
" transform="scale(0.015625)"/>
      <path id="DejaVuSans-68" d="M 3513 2113 
L 3513 0 
L 2938 0 
L 2938 2094 
Q 2938 2591 2744 2837 
Q 2550 3084 2163 3084 
Q 1697 3084 1428 2787 
Q 1159 2491 1159 1978 
L 1159 0 
L 581 0 
L 581 4863 
L 1159 4863 
L 1159 2956 
Q 1366 3272 1645 3428 
Q 1925 3584 2291 3584 
Q 2894 3584 3203 3211 
Q 3513 2838 3513 2113 
z
" transform="scale(0.015625)"/>
      <path id="DejaVuSans-66" d="M 2375 4863 
L 2375 4384 
L 1825 4384 
Q 1516 4384 1395 4259 
Q 1275 4134 1275 3809 
L 1275 3500 
L 2222 3500 
L 2222 3053 
L 1275 3053 
L 1275 0 
L 697 0 
L 697 3053 
L 147 3053 
L 147 3500 
L 697 3500 
L 697 3744 
Q 697 4328 969 4595 
Q 1241 4863 1831 4863 
L 2375 4863 
z
" transform="scale(0.015625)"/>
      <path id="DejaVuSans-6d" d="M 3328 2828 
Q 3544 3216 3844 3400 
Q 4144 3584 4550 3584 
Q 5097 3584 5394 3201 
Q 5691 2819 5691 2113 
L 5691 0 
L 5113 0 
L 5113 2094 
Q 5113 2597 4934 2840 
Q 4756 3084 4391 3084 
Q 3944 3084 3684 2787 
Q 3425 2491 3425 1978 
L 3425 0 
L 2847 0 
L 2847 2094 
Q 2847 2600 2669 2842 
Q 2491 3084 2119 3084 
Q 1678 3084 1418 2786 
Q 1159 2488 1159 1978 
L 1159 0 
L 581 0 
L 581 3500 
L 1159 3500 
L 1159 2956 
Q 1356 3278 1631 3431 
Q 1906 3584 2284 3584 
Q 2666 3584 2933 3390 
Q 3200 3197 3328 2828 
z
" transform="scale(0.015625)"/>
     </defs>
     <use xlink:href="#DejaVuSans-52"/>
     <use xlink:href="#DejaVuSans-65" x="64.982422"/>
     <use xlink:href="#DejaVuSans-63" x="126.505859"/>
     <use xlink:href="#DejaVuSans-65" x="181.486328"/>
     <use xlink:href="#DejaVuSans-69" x="243.009766"/>
     <use xlink:href="#DejaVuSans-76" x="270.792969"/>
     <use xlink:href="#DejaVuSans-65" x="329.972656"/>
     <use xlink:href="#DejaVuSans-72" x="391.496094"/>
     <use xlink:href="#DejaVuSans-20" x="432.609375"/>
     <use xlink:href="#DejaVuSans-6f" x="464.396484"/>
     <use xlink:href="#DejaVuSans-70" x="525.578125"/>
     <use xlink:href="#DejaVuSans-65" x="589.054688"/>
     <use xlink:href="#DejaVuSans-72" x="650.578125"/>
     <use xlink:href="#DejaVuSans-61" x="691.691406"/>
     <use xlink:href="#DejaVuSans-74" x="752.970703"/>
     <use xlink:href="#DejaVuSans-69" x="792.179688"/>
     <use xlink:href="#DejaVuSans-6e" x="819.962891"/>
     <use xlink:href="#DejaVuSans-67" x="883.341797"/>
     <use xlink:href="#DejaVuSans-20" x="946.818359"/>
     <use xlink:href="#DejaVuSans-63" x="978.605469"/>
     <use xlink:href="#DejaVuSans-68" x="1033.585938"/>
     <use xlink:href="#DejaVuSans-61" x="1096.964844"/>
     <use xlink:href="#DejaVuSans-72" x="1158.244141"/>
     <use xlink:href="#DejaVuSans-61" x="1199.357422"/>
     <use xlink:href="#DejaVuSans-63" x="1260.636719"/>
     <use xlink:href="#DejaVuSans-74" x="1315.617188"/>
     <use xlink:href="#DejaVuSans-65" x="1354.826172"/>
     <use xlink:href="#DejaVuSans-72" x="1416.349609"/>
     <use xlink:href="#DejaVuSans-69" x="1457.462891"/>
     <use xlink:href="#DejaVuSans-73" x="1485.246094"/>
     <use xlink:href="#DejaVuSans-74" x="1537.345703"/>
     <use xlink:href="#DejaVuSans-69" x="1576.554688"/>
     <use xlink:href="#DejaVuSans-63" x="1604.337891"/>
     <use xlink:href="#DejaVuSans-20" x="1659.318359"/>
     <use xlink:href="#DejaVuSans-66" x="1691.105469"/>
     <use xlink:href="#DejaVuSans-6f" x="1726.310547"/>
     <use xlink:href="#DejaVuSans-72" x="1787.492188"/>
     <use xlink:href="#DejaVuSans-20" x="1828.605469"/>
     <use xlink:href="#DejaVuSans-6d" x="1860.392578"/>
     <use xlink:href="#DejaVuSans-75" x="1957.804688"/>
     <use xlink:href="#DejaVuSans-6c" x="2021.183594"/>
     <use xlink:href="#DejaVuSans-74" x="2048.966797"/>
     <use xlink:href="#DejaVuSans-69" x="2088.175781"/>
     <use xlink:href="#DejaVuSans-63" x="2115.958984"/>
     <use xlink:href="#DejaVuSans-6c" x="2170.939453"/>
     <use xlink:href="#DejaVuSans-61" x="2198.722656"/>
     <use xlink:href="#DejaVuSans-73" x="2260.001953"/>
     <use xlink:href="#DejaVuSans-73" x="2312.101562"/>
    </g>
   </g>
   <g id="legend_1">
    <g id="patch_7">
     <path d="M 203.235625 302.584 
L 407.72 302.584 
Q 409.72 302.584 409.72 300.584 
L 409.72 184.159 
Q 409.72 182.159 407.72 182.159 
L 203.235625 182.159 
Q 201.235625 182.159 201.235625 184.159 
L 201.235625 300.584 
Q 201.235625 302.584 203.235625 302.584 
z
" style="fill: #ffffff; opacity: 0.8; stroke: #cccccc; stroke-linejoin: miter"/>
    </g>
    <g id="line2d_22">
     <path d="M 205.235625 190.257437 
L 215.235625 190.257437 
L 225.235625 190.257437 
" style="fill: none; stroke: #0000ff; stroke-width: 2; stroke-linecap: square"/>
    </g>
    <g id="text_16">
     <!-- ROC curve of class 0 (AUC = 0.99) -->
     <g transform="translate(233.235625 193.757437) scale(0.1 -0.1)">
      <defs>
       <path id="DejaVuSans-4f" d="M 2522 4238 
Q 1834 4238 1429 3725 
Q 1025 3213 1025 2328 
Q 1025 1447 1429 934 
Q 1834 422 2522 422 
Q 3209 422 3611 934 
Q 4013 1447 4013 2328 
Q 4013 3213 3611 3725 
Q 3209 4238 2522 4238 
z
M 2522 4750 
Q 3503 4750 4090 4092 
Q 4678 3434 4678 2328 
Q 4678 1225 4090 567 
Q 3503 -91 2522 -91 
Q 1538 -91 948 565 
Q 359 1222 359 2328 
Q 359 3434 948 4092 
Q 1538 4750 2522 4750 
z
" transform="scale(0.015625)"/>
       <path id="DejaVuSans-43" d="M 4122 4306 
L 4122 3641 
Q 3803 3938 3442 4084 
Q 3081 4231 2675 4231 
Q 1875 4231 1450 3742 
Q 1025 3253 1025 2328 
Q 1025 1406 1450 917 
Q 1875 428 2675 428 
Q 3081 428 3442 575 
Q 3803 722 4122 1019 
L 4122 359 
Q 3791 134 3420 21 
Q 3050 -91 2638 -91 
Q 1578 -91 968 557 
Q 359 1206 359 2328 
Q 359 3453 968 4101 
Q 1578 4750 2638 4750 
Q 3056 4750 3426 4639 
Q 3797 4528 4122 4306 
z
" transform="scale(0.015625)"/>
       <path id="DejaVuSans-28" d="M 1984 4856 
Q 1566 4138 1362 3434 
Q 1159 2731 1159 2009 
Q 1159 1288 1364 580 
Q 1569 -128 1984 -844 
L 1484 -844 
Q 1016 -109 783 600 
Q 550 1309 550 2009 
Q 550 2706 781 3412 
Q 1013 4119 1484 4856 
L 1984 4856 
z
" transform="scale(0.015625)"/>
       <path id="DejaVuSans-41" d="M 2188 4044 
L 1331 1722 
L 3047 1722 
L 2188 4044 
z
M 1831 4666 
L 2547 4666 
L 4325 0 
L 3669 0 
L 3244 1197 
L 1141 1197 
L 716 0 
L 50 0 
L 1831 4666 
z
" transform="scale(0.015625)"/>
       <path id="DejaVuSans-55" d="M 556 4666 
L 1191 4666 
L 1191 1831 
Q 1191 1081 1462 751 
Q 1734 422 2344 422 
Q 2950 422 3222 751 
Q 3494 1081 3494 1831 
L 3494 4666 
L 4128 4666 
L 4128 1753 
Q 4128 841 3676 375 
Q 3225 -91 2344 -91 
Q 1459 -91 1007 375 
Q 556 841 556 1753 
L 556 4666 
z
" transform="scale(0.015625)"/>
       <path id="DejaVuSans-3d" d="M 678 2906 
L 4684 2906 
L 4684 2381 
L 678 2381 
L 678 2906 
z
M 678 1631 
L 4684 1631 
L 4684 1100 
L 678 1100 
L 678 1631 
z
" transform="scale(0.015625)"/>
       <path id="DejaVuSans-39" d="M 703 97 
L 703 672 
Q 941 559 1184 500 
Q 1428 441 1663 441 
Q 2288 441 2617 861 
Q 2947 1281 2994 2138 
Q 2813 1869 2534 1725 
Q 2256 1581 1919 1581 
Q 1219 1581 811 2004 
Q 403 2428 403 3163 
Q 403 3881 828 4315 
Q 1253 4750 1959 4750 
Q 2769 4750 3195 4129 
Q 3622 3509 3622 2328 
Q 3622 1225 3098 567 
Q 2575 -91 1691 -91 
Q 1453 -91 1209 -44 
Q 966 3 703 97 
z
M 1959 2075 
Q 2384 2075 2632 2365 
Q 2881 2656 2881 3163 
Q 2881 3666 2632 3958 
Q 2384 4250 1959 4250 
Q 1534 4250 1286 3958 
Q 1038 3666 1038 3163 
Q 1038 2656 1286 2365 
Q 1534 2075 1959 2075 
z
" transform="scale(0.015625)"/>
       <path id="DejaVuSans-29" d="M 513 4856 
L 1013 4856 
Q 1481 4119 1714 3412 
Q 1947 2706 1947 2009 
Q 1947 1309 1714 600 
Q 1481 -109 1013 -844 
L 513 -844 
Q 928 -128 1133 580 
Q 1338 1288 1338 2009 
Q 1338 2731 1133 3434 
Q 928 4138 513 4856 
z
" transform="scale(0.015625)"/>
      </defs>
      <use xlink:href="#DejaVuSans-52"/>
      <use xlink:href="#DejaVuSans-4f" x="69.482422"/>
      <use xlink:href="#DejaVuSans-43" x="148.193359"/>
      <use xlink:href="#DejaVuSans-20" x="218.017578"/>
      <use xlink:href="#DejaVuSans-63" x="249.804688"/>
      <use xlink:href="#DejaVuSans-75" x="304.785156"/>
      <use xlink:href="#DejaVuSans-72" x="368.164062"/>
      <use xlink:href="#DejaVuSans-76" x="409.277344"/>
      <use xlink:href="#DejaVuSans-65" x="468.457031"/>
      <use xlink:href="#DejaVuSans-20" x="529.980469"/>
      <use xlink:href="#DejaVuSans-6f" x="561.767578"/>
      <use xlink:href="#DejaVuSans-66" x="622.949219"/>
      <use xlink:href="#DejaVuSans-20" x="658.154297"/>
      <use xlink:href="#DejaVuSans-63" x="689.941406"/>
      <use xlink:href="#DejaVuSans-6c" x="744.921875"/>
      <use xlink:href="#DejaVuSans-61" x="772.705078"/>
      <use xlink:href="#DejaVuSans-73" x="833.984375"/>
      <use xlink:href="#DejaVuSans-73" x="886.083984"/>
      <use xlink:href="#DejaVuSans-20" x="938.183594"/>
      <use xlink:href="#DejaVuSans-30" x="969.970703"/>
      <use xlink:href="#DejaVuSans-20" x="1033.59375"/>
      <use xlink:href="#DejaVuSans-28" x="1065.380859"/>
      <use xlink:href="#DejaVuSans-41" x="1104.394531"/>
      <use xlink:href="#DejaVuSans-55" x="1172.802734"/>
      <use xlink:href="#DejaVuSans-43" x="1245.996094"/>
      <use xlink:href="#DejaVuSans-20" x="1315.820312"/>
      <use xlink:href="#DejaVuSans-3d" x="1347.607422"/>
      <use xlink:href="#DejaVuSans-20" x="1431.396484"/>
      <use xlink:href="#DejaVuSans-30" x="1463.183594"/>
      <use xlink:href="#DejaVuSans-2e" x="1526.806641"/>
      <use xlink:href="#DejaVuSans-39" x="1558.59375"/>
      <use xlink:href="#DejaVuSans-39" x="1622.216797"/>
      <use xlink:href="#DejaVuSans-29" x="1685.839844"/>
     </g>
    </g>
    <g id="line2d_23">
     <path d="M 205.235625 204.935563 
L 215.235625 204.935563 
L 225.235625 204.935563 
" style="fill: none; stroke: #800080; stroke-width: 2; stroke-linecap: square"/>
    </g>
    <g id="text_17">
     <!-- ROC curve of class 1 (AUC = 1.00) -->
     <g transform="translate(233.235625 208.435563) scale(0.1 -0.1)">
      <use xlink:href="#DejaVuSans-52"/>
      <use xlink:href="#DejaVuSans-4f" x="69.482422"/>
      <use xlink:href="#DejaVuSans-43" x="148.193359"/>
      <use xlink:href="#DejaVuSans-20" x="218.017578"/>
      <use xlink:href="#DejaVuSans-63" x="249.804688"/>
      <use xlink:href="#DejaVuSans-75" x="304.785156"/>
      <use xlink:href="#DejaVuSans-72" x="368.164062"/>
      <use xlink:href="#DejaVuSans-76" x="409.277344"/>
      <use xlink:href="#DejaVuSans-65" x="468.457031"/>
      <use xlink:href="#DejaVuSans-20" x="529.980469"/>
      <use xlink:href="#DejaVuSans-6f" x="561.767578"/>
      <use xlink:href="#DejaVuSans-66" x="622.949219"/>
      <use xlink:href="#DejaVuSans-20" x="658.154297"/>
      <use xlink:href="#DejaVuSans-63" x="689.941406"/>
      <use xlink:href="#DejaVuSans-6c" x="744.921875"/>
      <use xlink:href="#DejaVuSans-61" x="772.705078"/>
      <use xlink:href="#DejaVuSans-73" x="833.984375"/>
      <use xlink:href="#DejaVuSans-73" x="886.083984"/>
      <use xlink:href="#DejaVuSans-20" x="938.183594"/>
      <use xlink:href="#DejaVuSans-31" x="969.970703"/>
      <use xlink:href="#DejaVuSans-20" x="1033.59375"/>
      <use xlink:href="#DejaVuSans-28" x="1065.380859"/>
      <use xlink:href="#DejaVuSans-41" x="1104.394531"/>
      <use xlink:href="#DejaVuSans-55" x="1172.802734"/>
      <use xlink:href="#DejaVuSans-43" x="1245.996094"/>
      <use xlink:href="#DejaVuSans-20" x="1315.820312"/>
      <use xlink:href="#DejaVuSans-3d" x="1347.607422"/>
      <use xlink:href="#DejaVuSans-20" x="1431.396484"/>
      <use xlink:href="#DejaVuSans-31" x="1463.183594"/>
      <use xlink:href="#DejaVuSans-2e" x="1526.806641"/>
      <use xlink:href="#DejaVuSans-30" x="1558.59375"/>
      <use xlink:href="#DejaVuSans-30" x="1622.216797"/>
      <use xlink:href="#DejaVuSans-29" x="1685.839844"/>
     </g>
    </g>
    <g id="line2d_24">
     <path d="M 205.235625 219.613687 
L 215.235625 219.613687 
L 225.235625 219.613687 
" style="fill: none; stroke: #ffa500; stroke-width: 2; stroke-linecap: square"/>
    </g>
    <g id="text_18">
     <!-- ROC curve of class 2 (AUC = 1.00) -->
     <g transform="translate(233.235625 223.113687) scale(0.1 -0.1)">
      <use xlink:href="#DejaVuSans-52"/>
      <use xlink:href="#DejaVuSans-4f" x="69.482422"/>
      <use xlink:href="#DejaVuSans-43" x="148.193359"/>
      <use xlink:href="#DejaVuSans-20" x="218.017578"/>
      <use xlink:href="#DejaVuSans-63" x="249.804688"/>
      <use xlink:href="#DejaVuSans-75" x="304.785156"/>
      <use xlink:href="#DejaVuSans-72" x="368.164062"/>
      <use xlink:href="#DejaVuSans-76" x="409.277344"/>
      <use xlink:href="#DejaVuSans-65" x="468.457031"/>
      <use xlink:href="#DejaVuSans-20" x="529.980469"/>
      <use xlink:href="#DejaVuSans-6f" x="561.767578"/>
      <use xlink:href="#DejaVuSans-66" x="622.949219"/>
      <use xlink:href="#DejaVuSans-20" x="658.154297"/>
      <use xlink:href="#DejaVuSans-63" x="689.941406"/>
      <use xlink:href="#DejaVuSans-6c" x="744.921875"/>
      <use xlink:href="#DejaVuSans-61" x="772.705078"/>
      <use xlink:href="#DejaVuSans-73" x="833.984375"/>
      <use xlink:href="#DejaVuSans-73" x="886.083984"/>
      <use xlink:href="#DejaVuSans-20" x="938.183594"/>
      <use xlink:href="#DejaVuSans-32" x="969.970703"/>
      <use xlink:href="#DejaVuSans-20" x="1033.59375"/>
      <use xlink:href="#DejaVuSans-28" x="1065.380859"/>
      <use xlink:href="#DejaVuSans-41" x="1104.394531"/>
      <use xlink:href="#DejaVuSans-55" x="1172.802734"/>
      <use xlink:href="#DejaVuSans-43" x="1245.996094"/>
      <use xlink:href="#DejaVuSans-20" x="1315.820312"/>
      <use xlink:href="#DejaVuSans-3d" x="1347.607422"/>
      <use xlink:href="#DejaVuSans-20" x="1431.396484"/>
      <use xlink:href="#DejaVuSans-31" x="1463.183594"/>
      <use xlink:href="#DejaVuSans-2e" x="1526.806641"/>
      <use xlink:href="#DejaVuSans-30" x="1558.59375"/>
      <use xlink:href="#DejaVuSans-30" x="1622.216797"/>
      <use xlink:href="#DejaVuSans-29" x="1685.839844"/>
     </g>
    </g>
    <g id="line2d_25">
     <path d="M 205.235625 234.291812 
L 215.235625 234.291812 
L 225.235625 234.291812 
" style="fill: none; stroke: #00ffff; stroke-width: 2; stroke-linecap: square"/>
    </g>
    <g id="text_19">
     <!-- ROC curve of class 3 (AUC = 1.00) -->
     <g transform="translate(233.235625 237.791812) scale(0.1 -0.1)">
      <defs>
       <path id="DejaVuSans-33" d="M 2597 2516 
Q 3050 2419 3304 2112 
Q 3559 1806 3559 1356 
Q 3559 666 3084 287 
Q 2609 -91 1734 -91 
Q 1441 -91 1130 -33 
Q 819 25 488 141 
L 488 750 
Q 750 597 1062 519 
Q 1375 441 1716 441 
Q 2309 441 2620 675 
Q 2931 909 2931 1356 
Q 2931 1769 2642 2001 
Q 2353 2234 1838 2234 
L 1294 2234 
L 1294 2753 
L 1863 2753 
Q 2328 2753 2575 2939 
Q 2822 3125 2822 3475 
Q 2822 3834 2567 4026 
Q 2313 4219 1838 4219 
Q 1578 4219 1281 4162 
Q 984 4106 628 3988 
L 628 4550 
Q 988 4650 1302 4700 
Q 1616 4750 1894 4750 
Q 2613 4750 3031 4423 
Q 3450 4097 3450 3541 
Q 3450 3153 3228 2886 
Q 3006 2619 2597 2516 
z
" transform="scale(0.015625)"/>
      </defs>
      <use xlink:href="#DejaVuSans-52"/>
      <use xlink:href="#DejaVuSans-4f" x="69.482422"/>
      <use xlink:href="#DejaVuSans-43" x="148.193359"/>
      <use xlink:href="#DejaVuSans-20" x="218.017578"/>
      <use xlink:href="#DejaVuSans-63" x="249.804688"/>
      <use xlink:href="#DejaVuSans-75" x="304.785156"/>
      <use xlink:href="#DejaVuSans-72" x="368.164062"/>
      <use xlink:href="#DejaVuSans-76" x="409.277344"/>
      <use xlink:href="#DejaVuSans-65" x="468.457031"/>
      <use xlink:href="#DejaVuSans-20" x="529.980469"/>
      <use xlink:href="#DejaVuSans-6f" x="561.767578"/>
      <use xlink:href="#DejaVuSans-66" x="622.949219"/>
      <use xlink:href="#DejaVuSans-20" x="658.154297"/>
      <use xlink:href="#DejaVuSans-63" x="689.941406"/>
      <use xlink:href="#DejaVuSans-6c" x="744.921875"/>
      <use xlink:href="#DejaVuSans-61" x="772.705078"/>
      <use xlink:href="#DejaVuSans-73" x="833.984375"/>
      <use xlink:href="#DejaVuSans-73" x="886.083984"/>
      <use xlink:href="#DejaVuSans-20" x="938.183594"/>
      <use xlink:href="#DejaVuSans-33" x="969.970703"/>
      <use xlink:href="#DejaVuSans-20" x="1033.59375"/>
      <use xlink:href="#DejaVuSans-28" x="1065.380859"/>
      <use xlink:href="#DejaVuSans-41" x="1104.394531"/>
      <use xlink:href="#DejaVuSans-55" x="1172.802734"/>
      <use xlink:href="#DejaVuSans-43" x="1245.996094"/>
      <use xlink:href="#DejaVuSans-20" x="1315.820312"/>
      <use xlink:href="#DejaVuSans-3d" x="1347.607422"/>
      <use xlink:href="#DejaVuSans-20" x="1431.396484"/>
      <use xlink:href="#DejaVuSans-31" x="1463.183594"/>
      <use xlink:href="#DejaVuSans-2e" x="1526.806641"/>
      <use xlink:href="#DejaVuSans-30" x="1558.59375"/>
      <use xlink:href="#DejaVuSans-30" x="1622.216797"/>
      <use xlink:href="#DejaVuSans-29" x="1685.839844"/>
     </g>
    </g>
    <g id="line2d_26">
     <path d="M 205.235625 248.969937 
L 215.235625 248.969937 
L 225.235625 248.969937 
" style="fill: none; stroke: #808080; stroke-width: 2; stroke-linecap: square"/>
    </g>
    <g id="text_20">
     <!-- ROC curve of class 4 (AUC = 0.99) -->
     <g transform="translate(233.235625 252.469937) scale(0.1 -0.1)">
      <use xlink:href="#DejaVuSans-52"/>
      <use xlink:href="#DejaVuSans-4f" x="69.482422"/>
      <use xlink:href="#DejaVuSans-43" x="148.193359"/>
      <use xlink:href="#DejaVuSans-20" x="218.017578"/>
      <use xlink:href="#DejaVuSans-63" x="249.804688"/>
      <use xlink:href="#DejaVuSans-75" x="304.785156"/>
      <use xlink:href="#DejaVuSans-72" x="368.164062"/>
      <use xlink:href="#DejaVuSans-76" x="409.277344"/>
      <use xlink:href="#DejaVuSans-65" x="468.457031"/>
      <use xlink:href="#DejaVuSans-20" x="529.980469"/>
      <use xlink:href="#DejaVuSans-6f" x="561.767578"/>
      <use xlink:href="#DejaVuSans-66" x="622.949219"/>
      <use xlink:href="#DejaVuSans-20" x="658.154297"/>
      <use xlink:href="#DejaVuSans-63" x="689.941406"/>
      <use xlink:href="#DejaVuSans-6c" x="744.921875"/>
      <use xlink:href="#DejaVuSans-61" x="772.705078"/>
      <use xlink:href="#DejaVuSans-73" x="833.984375"/>
      <use xlink:href="#DejaVuSans-73" x="886.083984"/>
      <use xlink:href="#DejaVuSans-20" x="938.183594"/>
      <use xlink:href="#DejaVuSans-34" x="969.970703"/>
      <use xlink:href="#DejaVuSans-20" x="1033.59375"/>
      <use xlink:href="#DejaVuSans-28" x="1065.380859"/>
      <use xlink:href="#DejaVuSans-41" x="1104.394531"/>
      <use xlink:href="#DejaVuSans-55" x="1172.802734"/>
      <use xlink:href="#DejaVuSans-43" x="1245.996094"/>
      <use xlink:href="#DejaVuSans-20" x="1315.820312"/>
      <use xlink:href="#DejaVuSans-3d" x="1347.607422"/>
      <use xlink:href="#DejaVuSans-20" x="1431.396484"/>
      <use xlink:href="#DejaVuSans-30" x="1463.183594"/>
      <use xlink:href="#DejaVuSans-2e" x="1526.806641"/>
      <use xlink:href="#DejaVuSans-39" x="1558.59375"/>
      <use xlink:href="#DejaVuSans-39" x="1622.216797"/>
      <use xlink:href="#DejaVuSans-29" x="1685.839844"/>
     </g>
    </g>
    <g id="line2d_27">
     <path d="M 205.235625 263.648062 
L 215.235625 263.648062 
L 225.235625 263.648062 
" style="fill: none; stroke: #008000; stroke-width: 2; stroke-linecap: square"/>
    </g>
    <g id="text_21">
     <!-- ROC curve of class 5 (AUC = 0.92) -->
     <g transform="translate(233.235625 267.148062) scale(0.1 -0.1)">
      <defs>
       <path id="DejaVuSans-35" d="M 691 4666 
L 3169 4666 
L 3169 4134 
L 1269 4134 
L 1269 2991 
Q 1406 3038 1543 3061 
Q 1681 3084 1819 3084 
Q 2600 3084 3056 2656 
Q 3513 2228 3513 1497 
Q 3513 744 3044 326 
Q 2575 -91 1722 -91 
Q 1428 -91 1123 -41 
Q 819 9 494 109 
L 494 744 
Q 775 591 1075 516 
Q 1375 441 1709 441 
Q 2250 441 2565 725 
Q 2881 1009 2881 1497 
Q 2881 1984 2565 2268 
Q 2250 2553 1709 2553 
Q 1456 2553 1204 2497 
Q 953 2441 691 2322 
L 691 4666 
z
" transform="scale(0.015625)"/>
      </defs>
      <use xlink:href="#DejaVuSans-52"/>
      <use xlink:href="#DejaVuSans-4f" x="69.482422"/>
      <use xlink:href="#DejaVuSans-43" x="148.193359"/>
      <use xlink:href="#DejaVuSans-20" x="218.017578"/>
      <use xlink:href="#DejaVuSans-63" x="249.804688"/>
      <use xlink:href="#DejaVuSans-75" x="304.785156"/>
      <use xlink:href="#DejaVuSans-72" x="368.164062"/>
      <use xlink:href="#DejaVuSans-76" x="409.277344"/>
      <use xlink:href="#DejaVuSans-65" x="468.457031"/>
      <use xlink:href="#DejaVuSans-20" x="529.980469"/>
      <use xlink:href="#DejaVuSans-6f" x="561.767578"/>
      <use xlink:href="#DejaVuSans-66" x="622.949219"/>
      <use xlink:href="#DejaVuSans-20" x="658.154297"/>
      <use xlink:href="#DejaVuSans-63" x="689.941406"/>
      <use xlink:href="#DejaVuSans-6c" x="744.921875"/>
      <use xlink:href="#DejaVuSans-61" x="772.705078"/>
      <use xlink:href="#DejaVuSans-73" x="833.984375"/>
      <use xlink:href="#DejaVuSans-73" x="886.083984"/>
      <use xlink:href="#DejaVuSans-20" x="938.183594"/>
      <use xlink:href="#DejaVuSans-35" x="969.970703"/>
      <use xlink:href="#DejaVuSans-20" x="1033.59375"/>
      <use xlink:href="#DejaVuSans-28" x="1065.380859"/>
      <use xlink:href="#DejaVuSans-41" x="1104.394531"/>
      <use xlink:href="#DejaVuSans-55" x="1172.802734"/>
      <use xlink:href="#DejaVuSans-43" x="1245.996094"/>
      <use xlink:href="#DejaVuSans-20" x="1315.820312"/>
      <use xlink:href="#DejaVuSans-3d" x="1347.607422"/>
      <use xlink:href="#DejaVuSans-20" x="1431.396484"/>
      <use xlink:href="#DejaVuSans-30" x="1463.183594"/>
      <use xlink:href="#DejaVuSans-2e" x="1526.806641"/>
      <use xlink:href="#DejaVuSans-39" x="1558.59375"/>
      <use xlink:href="#DejaVuSans-32" x="1622.216797"/>
      <use xlink:href="#DejaVuSans-29" x="1685.839844"/>
     </g>
    </g>
    <g id="line2d_28">
     <path d="M 205.235625 278.326187 
L 215.235625 278.326187 
L 225.235625 278.326187 
" style="fill: none; stroke: #ff0000; stroke-width: 2; stroke-linecap: square"/>
    </g>
    <g id="text_22">
     <!-- ROC curve of class 6 (AUC = 1.00) -->
     <g transform="translate(233.235625 281.826187) scale(0.1 -0.1)">
      <use xlink:href="#DejaVuSans-52"/>
      <use xlink:href="#DejaVuSans-4f" x="69.482422"/>
      <use xlink:href="#DejaVuSans-43" x="148.193359"/>
      <use xlink:href="#DejaVuSans-20" x="218.017578"/>
      <use xlink:href="#DejaVuSans-63" x="249.804688"/>
      <use xlink:href="#DejaVuSans-75" x="304.785156"/>
      <use xlink:href="#DejaVuSans-72" x="368.164062"/>
      <use xlink:href="#DejaVuSans-76" x="409.277344"/>
      <use xlink:href="#DejaVuSans-65" x="468.457031"/>
      <use xlink:href="#DejaVuSans-20" x="529.980469"/>
      <use xlink:href="#DejaVuSans-6f" x="561.767578"/>
      <use xlink:href="#DejaVuSans-66" x="622.949219"/>
      <use xlink:href="#DejaVuSans-20" x="658.154297"/>
      <use xlink:href="#DejaVuSans-63" x="689.941406"/>
      <use xlink:href="#DejaVuSans-6c" x="744.921875"/>
      <use xlink:href="#DejaVuSans-61" x="772.705078"/>
      <use xlink:href="#DejaVuSans-73" x="833.984375"/>
      <use xlink:href="#DejaVuSans-73" x="886.083984"/>
      <use xlink:href="#DejaVuSans-20" x="938.183594"/>
      <use xlink:href="#DejaVuSans-36" x="969.970703"/>
      <use xlink:href="#DejaVuSans-20" x="1033.59375"/>
      <use xlink:href="#DejaVuSans-28" x="1065.380859"/>
      <use xlink:href="#DejaVuSans-41" x="1104.394531"/>
      <use xlink:href="#DejaVuSans-55" x="1172.802734"/>
      <use xlink:href="#DejaVuSans-43" x="1245.996094"/>
      <use xlink:href="#DejaVuSans-20" x="1315.820312"/>
      <use xlink:href="#DejaVuSans-3d" x="1347.607422"/>
      <use xlink:href="#DejaVuSans-20" x="1431.396484"/>
      <use xlink:href="#DejaVuSans-31" x="1463.183594"/>
      <use xlink:href="#DejaVuSans-2e" x="1526.806641"/>
      <use xlink:href="#DejaVuSans-30" x="1558.59375"/>
      <use xlink:href="#DejaVuSans-30" x="1622.216797"/>
      <use xlink:href="#DejaVuSans-29" x="1685.839844"/>
     </g>
    </g>
    <g id="line2d_29">
     <path d="M 205.235625 293.004312 
L 215.235625 293.004312 
L 225.235625 293.004312 
" style="fill: none; stroke: #ff00ff; stroke-width: 2; stroke-linecap: square"/>
    </g>
    <g id="text_23">
     <!-- ROC curve of class 7 (AUC = 0.99) -->
     <g transform="translate(233.235625 296.504312) scale(0.1 -0.1)">
      <defs>
       <path id="DejaVuSans-37" d="M 525 4666 
L 3525 4666 
L 3525 4397 
L 1831 0 
L 1172 0 
L 2766 4134 
L 525 4134 
L 525 4666 
z
" transform="scale(0.015625)"/>
      </defs>
      <use xlink:href="#DejaVuSans-52"/>
      <use xlink:href="#DejaVuSans-4f" x="69.482422"/>
      <use xlink:href="#DejaVuSans-43" x="148.193359"/>
      <use xlink:href="#DejaVuSans-20" x="218.017578"/>
      <use xlink:href="#DejaVuSans-63" x="249.804688"/>
      <use xlink:href="#DejaVuSans-75" x="304.785156"/>
      <use xlink:href="#DejaVuSans-72" x="368.164062"/>
      <use xlink:href="#DejaVuSans-76" x="409.277344"/>
      <use xlink:href="#DejaVuSans-65" x="468.457031"/>
      <use xlink:href="#DejaVuSans-20" x="529.980469"/>
      <use xlink:href="#DejaVuSans-6f" x="561.767578"/>
      <use xlink:href="#DejaVuSans-66" x="622.949219"/>
      <use xlink:href="#DejaVuSans-20" x="658.154297"/>
      <use xlink:href="#DejaVuSans-63" x="689.941406"/>
      <use xlink:href="#DejaVuSans-6c" x="744.921875"/>
      <use xlink:href="#DejaVuSans-61" x="772.705078"/>
      <use xlink:href="#DejaVuSans-73" x="833.984375"/>
      <use xlink:href="#DejaVuSans-73" x="886.083984"/>
      <use xlink:href="#DejaVuSans-20" x="938.183594"/>
      <use xlink:href="#DejaVuSans-37" x="969.970703"/>
      <use xlink:href="#DejaVuSans-20" x="1033.59375"/>
      <use xlink:href="#DejaVuSans-28" x="1065.380859"/>
      <use xlink:href="#DejaVuSans-41" x="1104.394531"/>
      <use xlink:href="#DejaVuSans-55" x="1172.802734"/>
      <use xlink:href="#DejaVuSans-43" x="1245.996094"/>
      <use xlink:href="#DejaVuSans-20" x="1315.820312"/>
      <use xlink:href="#DejaVuSans-3d" x="1347.607422"/>
      <use xlink:href="#DejaVuSans-20" x="1431.396484"/>
      <use xlink:href="#DejaVuSans-30" x="1463.183594"/>
      <use xlink:href="#DejaVuSans-2e" x="1526.806641"/>
      <use xlink:href="#DejaVuSans-39" x="1558.59375"/>
      <use xlink:href="#DejaVuSans-39" x="1622.216797"/>
      <use xlink:href="#DejaVuSans-29" x="1685.839844"/>
     </g>
    </g>
   </g>
  </g>
 </g>
 <defs>
  <clipPath id="pf7eec62ae9">
   <rect x="57.6" y="41.472" width="357.12" height="266.112"/>
  </clipPath>
 </defs>
</svg>
